<svg id="图层_1" data-name="图层 1" xmlns="http://www.w3.org/2000/svg" viewBox="0 0 139.02 175.95"><defs><style>.cls-1{fill:#e47b78;}</style></defs><title>下降</title><path class="cls-1" d="M114.14,144.4V18.28a6.8,6.8,0,0,0-6.86-6.8H93.8a6.83,6.83,0,0,0-6.86,6.8V146.5L46.56,106.81a3.5,3.5,0,0,0-4.94.08l-9.53,9.53a3.49,3.49,0,0,0-.08,4.93l54.29,53.37a4,4,0,0,0,.8,1.15L97.5,186.26a3.91,3.91,0,0,0,3,1.15,3.6,3.6,0,0,0,2.72-1.06l7.56-7.56,58.24-56a3.8,3.8,0,0,0-.08-5.38L158.5,107a3.81,3.81,0,0,0-5.38-.08l-39,37.5Z" transform="translate(-31.03 -11.47)"/></svg>